<svg width="33" height="44" viewBox="0 0 33 44" fill="none" xmlns="http://www.w3.org/2000/svg">
<path d="M16.5 2C20.5045 2 23.9615 3.43572 26.75 6.27246C29.5754 9.08569 30.9999 12.5693 31 16.5996C31 19.5763 30.4327 22.2216 29.1758 24.4297L29.1748 24.4287C28.1191 26.3056 26.8982 28.1587 25.5146 29.9883C23.9293 32.119 22.7603 33.8505 21.9814 35.1963C21.2465 36.4875 20.6313 37.8661 20.1367 39.334L20.1318 39.3486L20.126 39.3633C19.8568 40.1229 19.3915 40.7975 18.709 41.2979L18.6797 41.3193C18.0232 41.7825 17.2726 42 16.5 42C15.6704 42 14.8587 41.7504 14.1729 41.1973C13.575 40.7151 13.1536 40.0974 12.8906 39.4082L12.876 39.3711L12.8633 39.333C12.34 37.7783 11.6823 36.3291 10.8916 34.9824L10.8838 34.9697L10.876 34.9561C10.104 33.5944 8.98733 31.9494 7.50195 30.0117C5.93076 27.9621 4.63087 25.9782 3.61621 24.0605L3.60449 24.0371C2.50436 21.8908 2 19.3861 2 16.5996C2.00009 12.5771 3.40359 9.09629 6.19629 6.28125C9.01433 3.44072 12.4877 2 16.5 2ZM16.5 14.0996C15.7712 14.0996 15.2292 14.3304 14.75 14.8135C14.2702 15.2972 14.0362 15.8509 14.0361 16.5996C14.0361 17.3485 14.2701 17.903 14.75 18.3867C15.2292 18.8697 15.7712 19.0996 16.5 19.0996C17.2288 19.0996 17.7708 18.8697 18.25 18.3867C18.7299 17.903 18.9639 17.3485 18.9639 16.5996C18.9638 15.8509 18.7298 15.2972 18.25 14.8135C17.7708 14.3304 17.2288 14.0996 16.5 14.0996Z" fill="#FF9539" stroke="white" stroke-width="4"/>
</svg>
