<svg width="39" height="39" viewBox="0 0 39 39" fill="none" xmlns="http://www.w3.org/2000/svg">
<path d="M31.6875 0.0126953C32.2637 0.0126953 32.8221 0.120832 33.3623 0.336914C33.8346 0.525892 34.2521 0.79708 34.6143 1.15137L34.7656 1.30859L37.7451 4.3418L37.7461 4.34277C38.1778 4.73861 38.4926 5.20647 38.6904 5.74609C38.8885 6.28628 38.9872 6.8263 38.9873 7.36621C38.9873 7.94252 38.8885 8.4925 38.6904 9.01465C38.4925 9.53635 38.1772 10.0132 37.7451 10.4453L9.20312 38.9873H0.0126953V29.7969L28.6084 1.25488C29.0406 0.858701 29.518 0.552986 30.04 0.336914C30.5621 0.120887 31.1113 0.0126956 31.6875 0.0126953ZM31.624 4.32422L28.582 7.36621L28.5908 7.37598L31.624 10.4092L31.6338 10.418L34.6758 7.37598L34.6846 7.36621L31.6338 4.31543L31.624 4.32422Z" fill="#88A9A9" stroke="black" stroke-width="0.025"/>
</svg>
