<svg width="52" height="58" viewBox="0 0 52 58" fill="none" xmlns="http://www.w3.org/2000/svg">
<path d="M35.5 2C39.5045 2 42.9615 3.43572 45.75 6.27246C48.5754 9.08569 49.9999 12.5693 50 16.5996C50 19.5763 49.4327 22.2216 48.1758 24.4297L48.1748 24.4287C47.1191 26.3056 45.8982 28.1587 44.5146 29.9883C42.9293 32.119 41.7603 33.8505 40.9814 35.1963C40.2465 36.4875 39.6313 37.8661 39.1367 39.334L39.1318 39.3486L39.126 39.3633C38.8568 40.1229 38.3915 40.7975 37.709 41.2979L37.6797 41.3193C37.0232 41.7825 36.2726 42 35.5 42C34.6704 42 33.8587 41.7504 33.1729 41.1973C32.575 40.7151 32.1536 40.0974 31.8906 39.4082L31.876 39.3711L31.8633 39.333C31.34 37.7783 30.6823 36.3291 29.8916 34.9824L29.8838 34.9697L29.876 34.9561C29.104 33.5944 27.9873 31.9494 26.502 30.0117C24.9308 27.9621 23.6309 25.9782 22.6162 24.0605L22.6045 24.0371C21.5044 21.8908 21 19.3861 21 16.5996C21.0001 12.5771 22.4036 9.09629 25.1963 6.28125C28.0143 3.44072 31.4877 2 35.5 2ZM35.5 14.0996C34.7712 14.0996 34.2292 14.3304 33.75 14.8135C33.2702 15.2972 33.0362 15.8509 33.0361 16.5996C33.0361 17.3485 33.2701 17.903 33.75 18.3867C34.2292 18.8697 34.7712 19.0996 35.5 19.0996C36.2288 19.0996 36.7708 18.8697 37.25 18.3867C37.7299 17.903 37.9639 17.3485 37.9639 16.5996C37.9638 15.8509 37.7298 15.2972 37.25 14.8135C36.7708 14.3304 36.2288 14.0996 35.5 14.0996Z" fill="white" stroke="#FF9539" stroke-width="4"/>
<path d="M16.5 16C20.5045 16 23.9615 17.4357 26.75 20.2725C29.5754 23.0857 30.9999 26.5693 31 30.5996C31 33.5763 30.4327 36.2216 29.1758 38.4297L29.1748 38.4287C28.1191 40.3056 26.8982 42.1587 25.5146 43.9883C23.9293 46.119 22.7603 47.8505 21.9814 49.1963C21.2465 50.4875 20.6313 51.8661 20.1367 53.334L20.1318 53.3486L20.126 53.3633C19.8568 54.1229 19.3915 54.7975 18.709 55.2979L18.6797 55.3193C18.0232 55.7825 17.2726 56 16.5 56C15.6704 56 14.8587 55.7504 14.1729 55.1973C13.575 54.7151 13.1536 54.0974 12.8906 53.4082L12.876 53.3711L12.8633 53.333C12.34 51.7783 11.6823 50.3291 10.8916 48.9824L10.8838 48.9697L10.876 48.9561C10.104 47.5944 8.98733 45.9494 7.50195 44.0117C5.93076 41.9621 4.63087 39.9782 3.61621 38.0605L3.60449 38.0371C2.50436 35.8908 2 33.3861 2 30.5996C2.00009 26.5771 3.40359 23.0963 6.19629 20.2812C9.01433 17.4407 12.4877 16 16.5 16ZM16.5 28.0996C15.7712 28.0996 15.2292 28.3304 14.75 28.8135C14.2702 29.2972 14.0362 29.8509 14.0361 30.5996C14.0361 31.3485 14.2701 31.903 14.75 32.3867C15.2292 32.8697 15.7712 33.0996 16.5 33.0996C17.2288 33.0996 17.7708 32.8697 18.25 32.3867C18.7299 31.903 18.9639 31.3485 18.9639 30.5996C18.9638 29.8509 18.7298 29.2972 18.25 28.8135C17.7708 28.3304 17.2288 28.0996 16.5 28.0996Z" fill="white" stroke="#7EDEB0" stroke-width="4"/>
</svg>
